Yanni Voices 2009 - Live From Acapulco - DVDRip HQ - including bonus latino tracks


General
Format                           : Matroska
File size                        : 4.30 GiB
Duration                         : 2h 4mn
Overall bit rate                 : 4 963 Kbps
Encoded date                     : UTC 2011-02-04 16:52:33

Video
ID                               : 1
Format                           : AVC
Format/Info                      : Advanced Video Codec
Format profile                   : Main@L3.0
Format settings, CABAC           : Yes
Format settings, ReFrames        : 4 frames
Format settings, GOP             : M=3, N=16
Muxing mode                      : Container profile=Unknown@3.0
Codec ID                         : V_MPEG4/ISO/AVC
Duration                         : 2h 4mn
Bit rate                         : 4 502 Kbps
Width                            : 720 pixels
Height                           : 480 pixels
Display aspect ratio             : 16:9
Original display aspect ratio    : 3:2
Frame rate mode                  : Variable
Frame rate                       : 29.970 fps
Standard                         : NTSC
Color space                      : YUV
Chroma subsampling               : 4:2:0
Bit depth                        : 8 bits
Scan type                        : Progressive
Bits/(Pixel*Frame)               : 0.435
Stream size                      : 3.83 GiB (89%)
Writing library                  : x264 core 112
Language                         : English

Audio
ID                               : 2
Format                           : AC-3
Format/Info                      : Audio Coding 3
Mode extension                   : CM (complete main)
Codec ID                         : A_AC3
Duration                         : 2h 4mn
Bit rate mode                    : Constant
Bit rate                         : 448 Kbps
Channel(s)                       : 6 channels
Channel positions                : Front: L C R, Side: L R, LFE
Sampling rate                    : 48.0 KHz
Bit depth                        : 16 bits
Stream size                      : 398 MiB (9%)
Language                         : English

Menu #1
00:00:00.000                     : :Chapter 1
00:01:06.299                     : :Chapter 2
00:04:05.245                     : :Chapter 3
00:08:20.633                     : :Chapter 4
00:13:09.688                     : :Chapter 5
00:18:21.767                     : :Chapter 6
00:22:06.224                     : :Chapter 7
00:29:00.805                     : :Chapter 8
00:34:31.669                     : :Chapter 9
00:39:32.436                     : :Chapter 10
00:43:15.392                     : :Chapter 11
00:48:26.169                     : :Chapter 12
00:51:53.009                     : :Chapter 13
00:56:40.997                     : :Chapter 14
01:02:26.642                     : :Chapter 15
01:06:27.950                     : :Chapter 16
01:10:12.374                     : :Chapter 17
01:14:16.618                     : :Chapter 18
01:18:31.139                     : :Chapter 19
01:22:09.457                     : :Chapter 20
01:26:22.677                     : :Chapter 21
01:29:43.544                     : :Chapter 22
01:36:49.737                     : :Chapter 23

Menu #2
01:41:45.568                     : :Chapter 1
01:48:04.579                     : :Chapter 2
01:52:20.802                     : :Chapter 3
02:00:29.724                     : :Chapter 4
02:04:03.571                     : :Chapter 5